<svg width="80" height="80" viewBox="0 0 80 80" fill="none" xmlns="http://www.w3.org/2000/svg">
<g clip-path="url(#clip0_328_8334)">
<rect width="80" height="80" rx="40" fill="#F3F0EA"/>
<path d="M18.1187 17.3726C12.1175 23.3738 8.7461 31.5131 8.7461 40C8.7461 48.487 12.1175 56.6263 18.1187 62.6275C24.1198 68.6286 32.2592 72 40.7461 72C49.233 72 57.3723 68.6286 63.3735 62.6275L40.7461 40L18.1187 17.3726Z" fill="#71A894"/>
<circle cx="40.7454" cy="40" r="22.4" transform="rotate(135 40.7454 40)" fill="#303031"/>
<path opacity="0.5" fill-rule="evenodd" clip-rule="evenodd" d="M24.9056 24.1607C16.1578 32.9085 16.1578 47.0914 24.9056 55.8391C33.6533 64.5869 47.8362 64.5869 56.584 55.8391C56.584 55.8391 56.584 55.8391 56.584 55.8391L40.7448 39.9999L24.9056 24.1607Z" fill="#71A894"/>
</g>
<defs>
<clipPath id="clip0_328_8334">
<rect width="80" height="80" rx="40" fill="white"/>
</clipPath>
</defs>
</svg>
