<svg width="68" height="41" viewBox="0 0 68 41" fill="none" xmlns="http://www.w3.org/2000/svg">
<g clip-path="url(#clip0_328_8257)">
<path d="M67.9996 20.5C67.9996 31.5456 58.9789 40.5 47.8515 40.5H47.5908H47.4302L47.2747 40.4962C47.1601 40.4962 47.0449 40.4887 46.9309 40.4837C46.8862 40.4837 46.8422 40.48 46.7975 40.4769L46.5576 40.4637L46.3832 40.4519L46.3234 40.4475C46.2711 40.4437 46.2188 40.44 46.1666 40.435C46.1143 40.43 46.0734 40.4275 46.0268 40.4231C45.9695 40.4181 45.9122 40.4131 45.8543 40.4069L45.7579 40.3975C45.6219 40.3837 45.4866 40.3687 45.3512 40.3512C45.3002 40.3456 45.2486 40.3387 45.1969 40.3319C45.071 40.3165 44.9474 40.2992 44.8261 40.28L44.6404 40.25C44.5774 40.2406 44.5144 40.2306 44.4565 40.22L44.2733 40.1881C44.1927 40.1744 44.1121 40.1594 44.0328 40.1437C43.9698 40.1331 43.9131 40.1212 43.8533 40.1094L43.7274 40.0831C43.6052 40.0581 43.4844 40.0319 43.3635 40.0044L43.1853 39.9631L43.0058 39.92C42.8862 39.8912 42.7672 39.8608 42.6488 39.8287L42.4719 39.7812L42.295 39.7319C42.1772 39.6981 42.0595 39.6637 41.943 39.6281L41.7919 39.5819L41.7189 39.5587L41.5753 39.5125C41.4532 39.4725 41.331 39.4319 41.2101 39.3875L41.0364 39.325L41.0187 39.3187L40.8487 39.2562C40.668 39.1937 40.4898 39.1219 40.3123 39.05L40.1354 38.9781L39.9591 38.9044C39.8415 38.8556 39.7248 38.805 39.609 38.7525L39.4585 38.6875L39.41 38.6656L39.2916 38.6106C38.7879 38.3765 38.2954 38.1215 37.8139 37.8456L37.6634 37.7587C37.5822 37.7119 37.501 37.6637 37.421 37.615L37.2951 37.5369L37.2472 37.5081L37.1282 37.4337C36.9561 37.3271 36.7866 37.2175 36.6195 37.105L36.4665 37C36.3918 36.9496 36.3175 36.8983 36.2436 36.8462C36.2394 36.8437 36.2354 36.8408 36.2317 36.8375C36.1553 36.7842 36.0797 36.7304 36.005 36.6762L35.9918 36.6669C35.9108 36.6081 35.8302 36.5487 35.75 36.4887C35.7403 36.4824 35.7311 36.4755 35.7223 36.4681C35.6524 36.4162 35.5831 36.3637 35.5145 36.31C35.4981 36.2987 35.483 36.2869 35.4679 36.2744C35.4005 36.2225 35.3332 36.17 35.2664 36.1162C35.2412 36.0969 35.2161 36.0762 35.1909 36.0537C35.1229 36 35.0549 35.9444 34.9875 35.8881C34.9724 35.8769 34.9579 35.865 34.9441 35.8525C34.8962 35.8133 34.8484 35.7733 34.8005 35.7325C34.7577 35.6969 34.7149 35.66 34.6746 35.6237C34.6028 35.5633 34.5321 35.5008 34.4624 35.4362C34.3875 35.3706 34.3138 35.3037 34.2401 35.2369C34.1665 35.17 34.0972 35.1062 34.0267 35.0394C33.6775 34.7131 33.3402 34.374 33.0149 34.0219C32.9777 33.9825 32.9412 33.9425 32.9053 33.9025C32.8549 33.8481 32.8052 33.7931 32.7567 33.7375C32.7082 33.6819 32.6642 33.6337 32.6188 33.5812C32.5735 33.5287 32.5137 33.46 32.4614 33.3987C32.3078 33.2192 32.1579 33.0369 32.0119 32.8519L31.891 32.6975C31.7764 32.5512 31.6643 32.4029 31.5548 32.2525C31.4918 32.1662 31.4288 32.08 31.3659 31.9925C31.3613 31.9867 31.3571 31.9807 31.3533 31.9744C31.2924 31.8881 31.232 31.8012 31.1719 31.7137C31.117 31.6346 31.0632 31.5548 31.0108 31.4744C30.9894 31.4431 30.9679 31.4119 30.9478 31.3781C30.9096 31.3206 30.8718 31.2625 30.8345 31.2037C30.82 31.1819 30.8055 31.16 30.7923 31.1375C30.7381 31.0542 30.6848 30.9687 30.6324 30.8812C30.5744 30.7875 30.5178 30.6937 30.4617 30.5975C30.4057 30.5012 30.3503 30.41 30.2955 30.3112C30.264 30.2556 30.2325 30.2006 30.2017 30.1444L30.1343 30.0194C30.0959 29.9506 30.0588 29.8812 30.0216 29.8119C30.0128 29.7956 30.004 29.7787 29.9958 29.7619C29.9643 29.6994 29.9328 29.6425 29.902 29.5825C29.8642 29.5087 29.8271 29.435 29.7899 29.3612C29.7528 29.2875 29.7169 29.2131 29.681 29.1394C29.6088 28.9906 29.5385 28.8408 29.4701 28.69C29.4016 28.5392 29.3351 28.3873 29.2705 28.2344C29.2384 28.1581 29.2075 28.0812 29.1748 28.0044C29.142 27.9275 29.1118 27.8512 29.0822 27.7744C29.052 27.6975 29.0192 27.6206 28.9928 27.5431C28.9664 27.4656 28.9342 27.3875 28.9053 27.3094C28.8213 27.0752 28.7401 26.8385 28.6616 26.5994C28.6358 26.52 28.6106 26.44 28.5861 26.36C28.5502 26.2444 28.5155 26.1275 28.4815 26.0106C28.4652 25.9525 28.4482 25.8937 28.4318 25.835C28.4154 25.7762 28.3997 25.7181 28.3839 25.6594C28.3516 25.5419 28.321 25.4237 28.292 25.305C28.2769 25.2458 28.2624 25.1865 28.2486 25.1269L28.207 24.95C28.1793 24.83 28.1529 24.71 28.1277 24.5888L28.1012 24.4638C28.0893 24.4044 28.0773 24.345 28.0666 24.2856C28.0509 24.2069 28.0358 24.1269 28.0219 24.0469C28.0106 23.9865 27.9999 23.9258 27.9898 23.865C27.9791 23.8025 27.969 23.74 27.9596 23.6825C27.9501 23.625 27.9401 23.5575 27.9306 23.4988C27.9117 23.3738 27.8947 23.2537 27.8784 23.1306C27.8714 23.0794 27.8645 23.0281 27.8588 22.9775C27.8412 22.8431 27.8261 22.7087 27.8122 22.5738C27.8085 22.5421 27.8053 22.5102 27.8028 22.4781C27.7965 22.4206 27.7915 22.3638 27.7864 22.3069C27.782 22.2606 27.7776 22.2144 27.7745 22.1681C27.7713 22.1219 27.7657 22.0644 27.7619 22.0125C27.7619 21.9925 27.7587 21.9731 27.7575 21.9531C27.7531 21.8956 27.7493 21.8375 27.7455 21.78C27.7405 21.7004 27.7361 21.621 27.7323 21.5419C27.7291 21.4975 27.7272 21.4538 27.7254 21.4094C27.7203 21.2963 27.7159 21.1819 27.7128 21.0681L27.709 20.9138C27.709 20.8606 27.709 20.8075 27.709 20.7544C27.709 20.6681 27.709 20.5819 27.709 20.4956C27.709 20.4094 27.709 20.3231 27.709 20.2369C27.709 20.1619 27.7102 20.0869 27.7128 20.0119C27.7172 19.8194 27.7247 19.6281 27.7354 19.4369C27.7386 19.3669 27.7424 19.2963 27.7474 19.2263C27.7543 19.1156 27.7619 19.0044 27.7707 18.8944C27.7757 18.8319 27.7814 18.7694 27.7871 18.7031C27.7934 18.6288 27.8009 18.5544 27.8085 18.4794L27.8141 18.4206C27.8217 18.3469 27.8299 18.2731 27.8387 18.1994C27.8475 18.1219 27.8569 18.045 27.8664 17.9688C27.8739 17.91 27.8815 17.8519 27.8897 17.7938C27.8979 17.7356 27.9042 17.6894 27.9117 17.6375C27.934 17.4817 27.9581 17.3267 27.9841 17.1725C27.9961 17.1019 28.0081 17.0319 28.0207 16.9619C28.0203 16.9579 28.0203 16.954 28.0207 16.95C28.0471 16.8006 28.0754 16.6525 28.1063 16.5044C28.1132 16.4694 28.1201 16.435 28.1277 16.4006C28.1478 16.3025 28.1692 16.2044 28.1907 16.1069C28.2389 15.8915 28.2912 15.6775 28.3474 15.465C28.3701 15.3769 28.3934 15.2888 28.4179 15.2006C28.445 15.1019 28.4734 15.0025 28.5023 14.9044C28.5281 14.8156 28.5546 14.7269 28.5823 14.6388C28.5867 14.6219 28.5917 14.6056 28.5974 14.5894C28.6257 14.4981 28.6547 14.4075 28.6843 14.3169C28.7158 14.22 28.7472 14.1244 28.7812 14.0281C28.8152 13.9319 28.8474 13.8406 28.882 13.7425L28.8858 13.7319C28.9072 13.6694 28.9292 13.6119 28.9525 13.5525C28.9758 13.4931 28.9903 13.45 29.0098 13.3988C29.0728 13.2381 29.1357 13.0781 29.1987 12.92C29.2201 12.8675 29.2415 12.815 29.2617 12.7631C29.2711 12.7388 29.2818 12.715 29.2925 12.6913C29.3183 12.6288 29.3454 12.5663 29.3731 12.5038C29.3781 12.4913 29.3832 12.4794 29.3888 12.4675C29.4184 12.4 29.4518 12.3331 29.4789 12.2663C29.5462 12.1188 29.6149 11.9719 29.686 11.8288C29.7099 11.7794 29.7339 11.73 29.7584 11.6813C29.783 11.6325 29.7994 11.5981 29.8214 11.5563C29.8434 11.5144 29.856 11.4863 29.8743 11.4519C29.8925 11.4175 29.9121 11.3775 29.9322 11.34C29.9599 11.2863 29.9882 11.2325 30.0166 11.1794C30.0537 11.1088 30.0915 11.0388 30.1293 10.9694C30.2313 10.7831 30.3362 10.599 30.4441 10.4169C30.4724 10.3688 30.5008 10.3213 30.5297 10.2738C30.5637 10.2163 30.5984 10.1594 30.6336 10.1025C30.7123 9.97313 30.7935 9.84438 30.876 9.7175C30.9188 9.65063 30.9629 9.58375 31.007 9.5175C31.0416 9.46438 31.0769 9.41188 31.1121 9.36C31.3082 9.06834 31.5117 8.78396 31.7229 8.50688C31.7556 8.46313 31.789 8.42 31.8224 8.37688C31.8431 8.34875 31.8639 8.32125 31.8853 8.29438L32.0062 8.14C32.1523 7.955 32.3021 7.77271 32.4558 7.59313C32.508 7.53063 32.5603 7.46813 32.6132 7.41063C32.6661 7.35313 32.7045 7.30626 32.7511 7.25438C32.7976 7.20251 32.8493 7.14375 32.8997 7.08938C32.9355 7.04938 32.9721 7.00938 33.0092 6.97001C33.3257 6.62667 33.6546 6.29521 33.9958 5.97563C35.5409 7.42832 36.8457 9.11356 37.8624 10.9694C35.3795 13.5295 33.9946 16.9463 33.9996 20.5C33.9996 20.6619 33.9996 20.8231 34.0084 20.9831C34.0819 23.1648 34.6803 25.2973 35.7538 27.2025C35.86 27.3912 35.9706 27.5771 36.0856 27.76L55.1634 8.8225C53.1096 7.55178 50.755 6.84042 48.3363 6.76001C48.1751 6.75376 48.0126 6.75126 47.8496 6.75126C46.2504 6.74937 44.6631 7.02302 43.1582 7.56001C42.0864 5.68609 40.7868 3.94997 39.2885 2.39063C39.681 2.20688 40.0797 2.03605 40.4848 1.87813L40.6523 1.81563C40.7921 1.76188 40.9331 1.71063 41.0748 1.66063C41.1333 1.63938 41.1925 1.61938 41.2517 1.59813C41.3109 1.57688 41.3694 1.55751 41.4292 1.53563C41.4891 1.51376 41.5552 1.49313 41.6213 1.47313C41.6994 1.44751 41.7781 1.42313 41.8574 1.39876L42.0564 1.33626C42.2087 1.29126 42.3619 1.24772 42.516 1.20563C42.5594 1.19376 42.6022 1.18188 42.6457 1.17126C42.7011 1.15626 42.7571 1.14126 42.8132 1.12751C42.8692 1.11376 42.9391 1.09501 43.0021 1.07938C43.0814 1.06001 43.1607 1.04063 43.2407 1.02251L43.3591 1.00001L43.5014 0.968757C43.6789 0.930007 43.8577 0.893132 44.0378 0.859382C44.119 0.843757 44.2002 0.828757 44.2821 0.814382H44.2909C44.3715 0.799382 44.4527 0.785632 44.5339 0.772507C44.6712 0.750007 44.8093 0.729174 44.9482 0.710007L45.0912 0.687507C45.3078 0.658132 45.525 0.631882 45.7441 0.609382L45.8448 0.599382C45.904 0.593132 45.9626 0.588132 46.0211 0.583132C46.108 0.575007 46.1949 0.567507 46.2818 0.561257L46.3788 0.554382C46.4354 0.550007 46.4927 0.545632 46.55 0.542507H46.5695L46.7767 0.530632C46.8718 0.525632 46.9656 0.521257 47.0632 0.517507L47.2596 0.511257C47.3094 0.511257 47.3597 0.508132 47.4095 0.507507H47.5505C47.6506 0.507507 47.7507 0.507507 47.8515 0.507507H48.1121H48.2727L48.4282 0.511257C48.5428 0.511257 48.6574 0.518757 48.772 0.523757C48.8167 0.523757 48.8608 0.527507 48.9055 0.530632C48.9852 0.534382 49.0652 0.538757 49.1454 0.543757L49.3198 0.555632L49.3796 0.560007C49.4318 0.563757 49.4841 0.567507 49.5364 0.572507C49.5886 0.577507 49.6295 0.580007 49.6761 0.584382C49.7334 0.589382 49.7907 0.594382 49.8486 0.600632C49.8805 0.603132 49.9127 0.606257 49.945 0.610007C50.081 0.623757 50.2164 0.638757 50.3517 0.656257C50.4027 0.661882 50.4544 0.668757 50.506 0.675632C50.6319 0.691882 50.7534 0.708757 50.8768 0.727507L51.0619 0.756257C51.1249 0.765632 51.1879 0.775632 51.2458 0.786257L51.429 0.818132C51.5096 0.831882 51.5902 0.846882 51.6695 0.862507C51.7325 0.873132 51.7892 0.885007 51.849 0.896882L51.9749 0.923132C52.0971 0.948132 52.2179 0.974382 52.3388 1.00188L52.517 1.04313C52.577 1.05688 52.6369 1.07126 52.6965 1.08626C52.8161 1.11501 52.9351 1.14542 53.0535 1.17751L53.2304 1.22501L53.4073 1.27438C53.5251 1.30813 53.6428 1.34251 53.7593 1.37813L53.9608 1.44063L54.1616 1.50313L54.3612 1.56938C54.4941 1.61438 54.6263 1.66126 54.7579 1.70876L54.9543 1.78126C55.0085 1.80126 55.0626 1.82209 55.1168 1.84376C55.2011 1.87501 55.2842 1.90626 55.3686 1.94126L55.5405 2.01126L55.7332 2.09126C55.7961 2.11813 55.8591 2.14563 55.9221 2.17376C55.985 2.20188 56.048 2.22876 56.1109 2.25751L56.2998 2.34376C56.3628 2.37251 56.4258 2.40188 56.4887 2.43188C56.5706 2.47001 56.6518 2.50876 56.7324 2.54876L56.8627 2.61126C56.9257 2.64188 56.9886 2.67376 57.0516 2.70501C57.1775 2.76751 57.2972 2.83001 57.4193 2.89751L57.5792 2.98438C57.6894 3.04688 57.7984 3.10501 57.906 3.16751L58.0319 3.23938C58.1881 3.33001 58.343 3.42251 58.496 3.51813L58.6093 3.58876C58.6446 3.61063 58.6798 3.63251 58.7145 3.65501C58.7774 3.69688 58.8454 3.73876 58.9103 3.78001C58.9562 3.80938 59.0016 3.83876 59.0463 3.86938C59.091 3.90001 59.1319 3.92626 59.1722 3.95563C59.5235 4.1923 59.8665 4.44021 60.201 4.69938C60.2419 4.73001 60.2829 4.76188 60.3232 4.79376C60.5032 4.93459 60.6806 5.07855 60.8552 5.22563L61.0315 5.37501C61.0945 5.42876 61.1574 5.48251 61.2204 5.53751C61.2594 5.57126 61.2978 5.60563 61.3362 5.64063C61.42 5.71438 61.5025 5.79001 61.5843 5.86626C61.6341 5.91188 61.6838 5.95813 61.7329 6.00501C61.981 6.23834 62.2225 6.47813 62.4576 6.72438C62.5048 6.77313 62.5514 6.8225 62.5974 6.87188C62.6742 6.95313 62.7504 7.03501 62.8247 7.11813C62.8599 7.15626 62.8946 7.19438 62.9286 7.23313C62.984 7.29563 63.0381 7.35813 63.0923 7.42063C63.1464 7.48313 63.1905 7.53375 63.239 7.59063C63.3867 7.76355 63.5318 7.93959 63.6741 8.11875C63.7062 8.15875 63.737 8.19938 63.7691 8.24C63.9001 8.40667 64.0277 8.5748 64.1519 8.74438L45.7812 26.9744L40.5377 32.1794C42.5914 33.4502 44.9461 34.1616 47.3648 34.2419C47.5259 34.2481 47.6884 34.2506 47.8515 34.2506C55.5015 34.2506 61.7033 28.0944 61.7033 20.5006C61.7033 20.3388 61.7033 20.1775 61.6945 20.0175L64.5278 17.205L67.1181 14.6331C67.154 14.7488 67.1887 14.8656 67.2227 14.9825C67.239 15.0406 67.256 15.0994 67.2724 15.1581C67.2888 15.2169 67.3045 15.275 67.3202 15.3338C67.3521 15.4513 67.3828 15.5694 67.4122 15.6881C67.4273 15.7477 67.4418 15.8071 67.4556 15.8663L67.4972 16.0431C67.5249 16.1631 67.5513 16.2831 67.5765 16.4044L67.6029 16.5294C67.6149 16.5888 67.6269 16.6481 67.6376 16.7075C67.6533 16.7863 67.6684 16.8663 67.6823 16.9463C67.6936 17.0067 67.7043 17.0673 67.7144 17.1281C67.7251 17.1906 67.7352 17.2531 67.7446 17.3106C67.7541 17.3681 67.7641 17.4356 67.7736 17.4944C67.7925 17.6169 67.8099 17.7396 67.8258 17.8625C67.8328 17.9138 67.8397 17.965 67.8454 18.0156C67.863 18.15 67.8781 18.2844 67.8919 18.4194C67.8957 18.451 67.8989 18.4829 67.9014 18.515C67.9077 18.5725 67.9127 18.6294 67.9178 18.6863C67.9222 18.7325 67.9266 18.7788 67.9297 18.825C67.9329 18.8713 67.9385 18.9288 67.9423 18.9806C67.9423 19.0006 67.9455 19.02 67.9467 19.04C67.9511 19.0975 67.9549 19.1556 67.9587 19.2131C67.9637 19.2927 67.9681 19.3721 67.9719 19.4513C67.9719 19.4956 67.9769 19.5394 67.9788 19.5838C67.9839 19.6975 67.9883 19.8113 67.9914 19.925L67.9952 20.0794C67.9952 20.1325 67.9952 20.1856 67.9952 20.2388C67.9981 20.3267 67.9996 20.4138 67.9996 20.5Z" fill="#71A894"/>
<path d="M34 5.97682C33.6592 6.29682 33.3303 6.62828 33.0134 6.97119C32.9762 7.01057 32.9397 7.05057 32.9038 7.09057C32.8534 7.14494 32.8037 7.19994 32.7552 7.25557C32.7067 7.31119 32.6627 7.35932 32.6173 7.41182C32.572 7.46432 32.5122 7.53307 32.4599 7.59432C32.3063 7.77349 32.1564 7.95578 32.0104 8.14119L31.8895 8.29557C31.8674 8.32244 31.8467 8.34995 31.8265 8.37807C31.7931 8.4212 31.7598 8.46432 31.727 8.50807C31.5172 8.78682 31.3136 9.07119 31.1163 9.36119C31.081 9.41307 31.0458 9.46557 31.0111 9.51869C30.9671 9.58494 30.923 9.65182 30.8802 9.71869C30.7977 9.84369 30.7165 9.97432 30.6378 10.1037C30.6025 10.1606 30.5679 10.2174 30.5339 10.2749C30.5049 10.3224 30.4766 10.3699 30.4483 10.4181C30.3408 10.6002 30.2359 10.7843 30.1334 10.9706C28.8426 9.63401 27.2923 8.57095 25.5761 7.84555C23.8599 7.12015 22.0134 6.74745 20.1481 6.74994C12.4981 6.74994 6.2963 12.9062 6.2963 20.4999C6.2963 28.0937 12.4981 34.25 20.1481 34.25C21.7473 34.2518 23.3346 33.9782 24.8395 33.4412C25.9118 35.3149 27.2121 37.0506 28.7111 38.6093C26.0322 39.8586 23.108 40.5042 20.1481 40.5C9.0207 40.5 0 31.5456 0 20.4999C0 9.45432 9.0207 0.499943 20.1481 0.499943C25.3017 0.496842 30.2599 2.45727 34 5.97682Z" fill="#303031"/>
</g>
<defs>
<clipPath id="clip0_328_8257">
<rect width="68" height="40" fill="white" transform="translate(0 0.5)"/>
</clipPath>
</defs>
</svg>
